{"title":"Mud.2012.WEB-DLRip.XviD.AC3.1400MB-TST","uid":8730468,"size":1466605568,"categoryP":"video","categoryS":"movies","magnet":"?xt=urn:btih:3b8bbfa0a664b4ec712b26abd176427b7a4c4b59&amp;dn=Mud.2012.WEB-DLRip.XviD.AC3.1400MB-TST&amp;tr=udp%3A%2F%2Ftracker.openbittorrent.com%3A80&amp;tr=udp%3A%2F%2Fopen.demonii.com%3A1337&amp;tr=udp%3A%2F%2Ftracker.coppersurfer.tk%3A6969&amp;tr=udp%3A%2F%2Fexodus.desync.com%3A6969","seeders":1,"leechers":0,"uploader":null,"files":1,"time":1374594926,"description":"******************************************************************************************************\n\n** Mud.2012.BDRip.XviD.AC3.1400MB-TST**\n\n******************************************************************************************************\n\nEncoder ..........: Ciumac @ TST\nVideo Codec.......: XviD\nVideo Bitrate.....: 1102\nAudio Codec.......: AC3 Dolby Digital\nAudio Bitrate.....: 384 kbs, 6 channels\nResolution........: 720X304, 23.976 fps\nRuntime...........: 02:10:42.667 (188036 frames)\nLanguage..........: English\nSubtitles.........: n/a\nIMDB Rating.......: 7.9 / 10\nIMDb URL..........: http://www.imdb.com/title/tt1935179/\nSource...........: Mud.2012.720p.WEB-DL.H264-PublicHD\n_______________________________________________________________________________\n\n\n\nPlot:\nTwo teenage boys encounter a fugitive and form a pact to help him evade the bounty hunters on his trail and to reunite him with his true love.\n\n_______________________________________________________________________________\n\nCast:\n\nDirector: Jeff Nichols\nWriter: Jeff Nichols\nStars: Matthew McConaughey, Tye Sheridan, Jacob Lofland\n\n\n\nGeneral\nFormat                                   : AVI\nFormat/Info                              : Audio Video Interleave\nFile size                                : 1.37 GiB\nDuration                                 : 2h 10mn\nOverall bit rate                         : 1 496 Kbps\nWriting application                      : VirtualDubMod 1.5.10.2 (build 2540/release)\nWriting library                          : VirtualDubMod build 2540/release\n\nVideo\nID                                       : 0\nFormat                                   : MPEG-4 Visual\nFormat profile                           : Advanced Simple@L5\nFormat settings, BVOP                    : 2\nFormat settings, QPel                    : No\nFormat settings, GMC                     : No warppoints\nFormat settings, Matrix                  : Default (MPEG)\nCodec ID                                 : XVID\nCodec ID/Hint                            : XviD\nDuration                                 : 2h 10mn\nBit rate                                 : 1 103 Kbps\nWidth                                    : 720 pixels\nHeight                                   : 304 pixels\nDisplay aspect ratio                     : 2.35:1\nFrame rate                               : 23.976 fps\nColor space                              : YUV\nChroma subsampling                       : 4:2:0\nBit depth                                : 8 bits\nScan type                                : Progressive\nCompression mode                         : Lossy\nBits/(Pixel*Frame)                       : 0.210\nStream size                              : 1.01 GiB (74%)\nWriting library                          : XviD 1.2.1 (UTC 2008-12-04)\n\nAudio\nID                                       : 1\nFormat                                   : AC-3\nFormat/Info                              : Audio Coding 3\nMode extension                           : CM (complete main)\nCodec ID                                 : 2000\nDuration                                 : 2h 10mn\nBit rate mode                            : Constant\nBit rate                                 : 384 Kbps\nChannel(s)                               : 6 channels\nChannel positions                        : Front: L C R, Side: L R, LFE\nSampling rate                            : 48.0 KHz\nBit depth                                : 16 bits\nCompression mode                         : Lossy\nStream size                              : 359 MiB (26%)\nAlignment                                : Split accross interleaves\nInterleave, duration                     : 42 ms (1.00 video frame)\nInterleave, preload duration             : 500 ms\n\n\n","torrent":{"xt":"urn:btih:3b8bbfa0a664b4ec712b26abd176427b7a4c4b59","amp;dn":"Mud.2012.WEB-DLRip.XviD.AC3.1400MB-TST","amp;tr":["udp%3A%2F%2Ftracker.openbittorrent.com%3A80","udp%3A%2F%2Fopen.demonii.com%3A1337","udp%3A%2F%2Ftracker.coppersurfer.tk%3A6969","udp%3A%2F%2Fexodus.desync.com%3A6969"],"infoHash":"3b8bbfa0a664b4ec712b26abd176427b7a4c4b59","infoHashBuffer":{"type":"Buffer","data":[59,139,191,160,166,100,180,236,113,43,38,171,209,118,66,123,122,76,75,89]},"announce":[],"urlList":[]}}